<svg width="26" height="26" viewBox="0 0 26 26" fill="none" xmlns="http://www.w3.org/2000/svg">
<path fill-rule="evenodd" clip-rule="evenodd" d="M0 13C0 5.8203 5.8203 0 13 0C20.1797 0 26 5.8203 26 13C26 20.1797 20.1797 26 13 26C5.8203 26 0 20.1797 0 13Z" fill="#00B0EB"/>
<path d="M11.8609 15.7451V15.5597C11.8646 14.9235 11.9209 14.4163 12.03 14.0382C12.1427 13.6601 12.3063 13.3548 12.5208 13.1221C12.7353 12.8894 12.9934 12.6786 13.2951 12.4895C13.5205 12.3441 13.7223 12.1932 13.9004 12.0369C14.0786 11.8806 14.2204 11.7079 14.3258 11.5188C14.4312 11.3262 14.4839 11.1117 14.4839 10.8754C14.4839 10.6245 14.4239 10.4046 14.304 10.2155C14.184 10.0265 14.0222 9.88105 13.8186 9.77925C13.6187 9.67746 13.3969 9.62656 13.1533 9.62656C12.917 9.62656 12.6935 9.67928 12.4826 9.78471C12.2717 9.8865 12.099 10.0392 11.9645 10.2428C11.83 10.4427 11.7573 10.6918 11.7464 10.9899H9.52148C9.53966 10.2628 9.71417 9.66292 10.045 9.1903C10.3758 8.71405 10.8139 8.35959 11.3592 8.12692C11.9046 7.89061 12.5062 7.77246 13.1642 7.77246C13.8877 7.77246 14.5276 7.89243 15.0838 8.13238C15.64 8.36868 16.0763 8.71224 16.3926 9.16304C16.7089 9.61384 16.867 10.1573 16.867 10.7936C16.867 11.2189 16.7961 11.597 16.6543 11.9278C16.5162 12.255 16.3217 12.5459 16.0708 12.8004C15.82 13.0512 15.5237 13.2784 15.1819 13.482C14.8947 13.6529 14.6584 13.831 14.473 14.0164C14.2913 14.2018 14.1549 14.4163 14.064 14.6599C13.9768 14.9035 13.9313 15.2034 13.9277 15.5597V15.7451H11.8609ZM12.9407 19.2352C12.5771 19.2352 12.2663 19.1079 12.0082 18.8534C11.7537 18.5953 11.6283 18.2863 11.6319 17.9264C11.6283 17.5701 11.7537 17.2647 12.0082 17.0103C12.2663 16.7558 12.5771 16.6285 12.9407 16.6285C13.286 16.6285 13.5896 16.7558 13.8514 17.0103C14.1131 17.2647 14.2458 17.5701 14.2494 17.9264C14.2458 18.1663 14.1822 18.3863 14.0586 18.5862C13.9386 18.7826 13.7805 18.9407 13.5841 19.0607C13.3878 19.177 13.1733 19.2352 12.9407 19.2352Z" fill="white"/>
</svg>
