<svg width="24" height="24" viewBox="0 0 24 24" fill="none" xmlns="http://www.w3.org/2000/svg">
<path fill-rule="evenodd" clip-rule="evenodd" d="M12 7.94995C11.1716 7.94995 10.5 7.27838 10.5 6.44995C10.5 5.62152 11.1716 4.94995 12 4.94995C12.8284 4.94995 13.5 5.62152 13.5 6.44995C13.5 7.27838 12.8284 7.94995 12 7.94995ZM12 13.5C11.1716 13.5 10.5 12.8284 10.5 12C10.5 11.1716 11.1716 10.5 12 10.5C12.8284 10.5 13.5 11.1716 13.5 12C13.5 12.8284 12.8284 13.5 12 13.5ZM10.5 17.55C10.5 18.3785 11.1716 19.05 12 19.05C12.8284 19.05 13.5 18.3785 13.5 17.55C13.5 16.7216 12.8284 16.05 12 16.05C11.1716 16.05 10.5 16.7216 10.5 17.55Z" fill="#4D4D4D"/>
</svg>
