<svg width="20" height="20" viewBox="0 0 20 20" fill="none" xmlns="http://www.w3.org/2000/svg">
<path fill-rule="evenodd" clip-rule="evenodd" d="M2 10.0002C2 5.5819 5.5817 2.0002 9.99996 2.0002C14.4182 2.0002 17.9999 5.5819 17.9999 10.0002C17.9999 14.4184 14.4182 18.0001 9.99996 18.0001C5.5817 18.0001 2 14.4184 2 10.0002Z" fill="#AFCA0A"/>
<path fill-rule="evenodd" clip-rule="evenodd" d="M13.8624 7.12254C14.1464 7.40655 14.1464 7.86703 13.8624 8.15105L9.34814 12.8783C9.06412 13.1623 8.60364 13.1623 8.31962 12.8783L6.13782 10.6965C5.8538 10.4125 5.8538 9.952 6.13782 9.66798C6.42183 9.38396 6.88231 9.38396 7.16633 9.66798L8.83388 11.3355L12.8339 7.12254C13.1179 6.83852 13.5784 6.83852 13.8624 7.12254Z" fill="white"/>
</svg>
