<svg width="16" height="16" viewBox="0 0 16 16" fill="none" xmlns="http://www.w3.org/2000/svg">
<path fill-rule="evenodd" clip-rule="evenodd" d="M1.6001 8.00013C1.6001 4.46552 4.46546 1.60016 8.00007 1.60016C11.5347 1.60016 14.4 4.46552 14.4 8.00013C14.4 11.5347 11.5347 14.4001 8.00007 14.4001C4.46546 14.4001 1.6001 11.5347 1.6001 8.00013Z" fill="#AFCA0A"/>
<path fill-rule="evenodd" clip-rule="evenodd" d="M11.0898 5.69804C11.317 5.92525 11.317 6.29364 11.0898 6.52085L7.47841 10.3027C7.2512 10.5299 6.88282 10.5299 6.6556 10.3027L4.91016 8.55721C4.68294 8.32999 4.68294 7.96161 4.91016 7.7344C5.13737 7.50718 5.50575 7.50718 5.73297 7.7344L7.06701 9.06844L10.267 5.69804C10.4942 5.47083 10.8626 5.47083 11.0898 5.69804Z" fill="white"/>
</svg>
