<svg width="16" height="16" viewBox="0 0 16 16" fill="none" xmlns="http://www.w3.org/2000/svg">
<g clip-path="url(#clip0_4_5357)">
<path d="M8 2.66666C4.36364 2.66666 1.25818 4.75449 0 7.70162C1.25818 10.6488 4.36364 12.7366 8 12.7366C11.6364 12.7366 14.7418 10.6488 16 7.70162C14.7418 4.75449 11.6364 2.66666 8 2.66666ZM8 11.0583C5.99273 11.0583 4.36364 9.55449 4.36364 7.70162C4.36364 5.84875 5.99273 4.34498 8 4.34498C10.0073 4.34498 11.6364 5.84875 11.6364 7.70162C11.6364 9.55449 10.0073 11.0583 8 11.0583ZM8 5.68764C6.79273 5.68764 5.81818 6.58722 5.81818 7.70162C5.81818 8.81603 6.79273 9.71561 8 9.71561C9.20727 9.71561 10.1818 8.81603 10.1818 7.70162C10.1818 6.58722 9.20727 5.68764 8 5.68764Z" fill="#a6a6a6"/>
</g>
<defs>
<clipPath id="clip0_4_5357">
<rect width="16" height="16" fill="white"/>
</clipPath>
</defs>
</svg>
