<svg width="80" height="80" viewBox="0 0 80 80" fill="none" xmlns="http://www.w3.org/2000/svg">
<g filter="url(#filter0_d_3843_59575)">
<path fill-rule="evenodd" clip-rule="evenodd" d="M44.9539 60.1008C52.5695 53.1735 65 39.9972 65 27.792C65 13.3636 53.434 1.66699 39.1667 1.66699C24.8993 1.66699 13.3333 13.3636 13.3333 27.792C13.3333 39.9972 25.7638 53.1735 33.3794 60.1008C36.6994 63.1207 41.6339 63.1207 44.9539 60.1008ZM39.1666 36.6672C44.2292 36.6672 48.3333 32.5631 48.3333 27.5005C48.3333 22.4379 44.2292 18.3338 39.1666 18.3338C34.104 18.3338 30 22.4379 30 27.5005C30 32.5631 34.104 36.6672 39.1666 36.6672Z" fill="url(#paint0_linear_3843_59575)"/>
</g>
<circle cx="39.1667" cy="27.4997" r="9.16667" fill="white"/>
<g opacity="0.2" filter="url(#filter1_f_3843_59575)">
<ellipse cx="39.1667" cy="75.0003" rx="12.5" ry="3.33333" fill="#0E49BB"/>
</g>
<defs>
<filter id="filter0_d_3843_59575" x="6.66666" y="1.66699" width="65" height="74.0316" filterUnits="userSpaceOnUse" color-interpolation-filters="sRGB">
<feFlood flood-opacity="0" result="BackgroundImageFix"/>
<feColorMatrix in="SourceAlpha" type="matrix" values="0 0 0 0 0 0 0 0 0 0 0 0 0 0 0 0 0 0 127 0" result="hardAlpha"/>
<feOffset dy="6.66667"/>
<feGaussianBlur stdDeviation="3.33333"/>
<feComposite in2="hardAlpha" operator="out"/>
<feColorMatrix type="matrix" values="0 0 0 0 0.247059 0 0 0 0 0.454902 0 0 0 0 0.847059 0 0 0 0.25 0"/>
<feBlend mode="normal" in2="BackgroundImageFix" result="effect1_dropShadow_3843_59575"/>
<feBlend mode="normal" in="SourceGraphic" in2="effect1_dropShadow_3843_59575" result="shape"/>
</filter>
<filter id="filter1_f_3843_59575" x="23.3333" y="68.3337" width="31.6667" height="13.3337" filterUnits="userSpaceOnUse" color-interpolation-filters="sRGB">
<feFlood flood-opacity="0" result="BackgroundImageFix"/>
<feBlend mode="normal" in="SourceGraphic" in2="BackgroundImageFix" result="shape"/>
<feGaussianBlur stdDeviation="1.66667" result="effect1_foregroundBlur_3843_59575"/>
</filter>
<linearGradient id="paint0_linear_3843_59575" x1="39.1667" y1="0.000325435" x2="39.1667" y2="65.8244" gradientUnits="userSpaceOnUse">
<stop stop-color="#3F74D8"/>
<stop offset="1" stop-color="#0A46B9"/>
</linearGradient>
</defs>
</svg>
